<?xml version="1.0" standalone="no"?>
<!DOCTYPE svg PUBLIC "-//W3C//DTD SVG 20010904//EN"
 "http://www.w3.org/TR/2001/REC-SVG-20010904/DTD/svg10.dtd">
<svg version="1.0" xmlns="http://www.w3.org/2000/svg"
 width="512.000000pt" height="512.000000pt" viewBox="0 0 512.000000 512.000000"
 preserveAspectRatio="xMidYMid meet">
<metadata>
Created by potrace 1.14, written by Peter Selinger 2001-2017
</metadata>
<g transform="translate(0.000000,512.000000) scale(0.100000,-0.100000)"
fill="#000000" stroke="none">
<path d="M3260 4409 c-77 -32 -93 -74 -95 -244 -2 -161 4 -190 44 -233 58 -60
146 -66 214 -14 51 39 62 84 61 243 -1 151 -12 189 -66 229 -36 27 -117 37
-158 19z"/>
<path d="M2214 3971 c-72 -33 -106 -108 -85 -187 8 -30 35 -63 113 -140 57
-56 113 -107 126 -113 97 -50 218 20 226 130 5 63 -18 99 -131 212 -122 121
-163 137 -249 98z"/>
<path d="M4292 3970 c-40 -25 -213 -201 -225 -230 -25 -62 -17 -125 22 -168
53 -60 129 -74 199 -38 49 26 218 208 232 249 14 45 0 119 -28 151 -48 53
-144 70 -200 36z"/>
<path d="M3240 3723 c-243 -35 -407 -109 -562 -254 -90 -84 -109 -156 -63
-234 24 -42 73 -74 120 -80 41 -4 103 25 150 70 119 114 269 177 420 178 112
1 162 -7 245 -40 206 -82 357 -273 387 -488 27 -200 -35 -382 -181 -530 -106
-107 -123 -151 -91 -228 28 -67 77 -98 153 -99 53 0 94 26 175 108 233 237
326 592 237 912 -95 342 -385 609 -731 672 -66 12 -214 20 -259 13z"/>
<path d="M1830 3293 c-374 -49 -667 -258 -820 -586 -36 -76 -80 -219 -80 -258
0 -13 -15 -20 -65 -28 -126 -22 -273 -89 -375 -170 -319 -252 -418 -690 -241
-1063 58 -121 169 -252 279 -330 108 -75 267 -136 402 -154 72 -9 1915 -9
2005 1 97 9 249 63 342 119 211 128 368 353 410 586 14 82 9 290 -10 361 -45
172 -126 311 -252 432 -55 53 -159 125 -217 151 -21 9 -55 23 -75 32 -20 9
-74 24 -120 33 -70 13 -83 19 -83 35 0 78 -94 303 -172 414 -153 216 -402 372
-663 417 -45 7 -226 13 -265 8z m275 -338 c156 -41 311 -151 400 -285 76 -114
110 -220 121 -370 5 -78 27 -122 79 -156 22 -14 38 -17 176 -29 206 -17 393
-160 460 -350 28 -80 30 -88 35 -176 9 -151 -48 -292 -165 -410 -72 -72 -174
-128 -269 -148 -59 -12 -1919 -17 -2002 -5 -100 14 -227 82 -305 162 -53 56
-110 152 -131 221 -21 67 -27 207 -12 276 26 129 126 271 241 346 60 39 183
86 195 75 3 -4 8 -19 10 -34 11 -89 104 -304 155 -361 101 -111 277 -40 277
111 0 24 -6 53 -14 64 -27 38 -77 143 -91 191 -119 400 133 814 540 888 86 15
220 11 300 -10z"/>
<path d="M4506 2926 c-53 -28 -78 -64 -84 -124 -7 -81 34 -143 113 -168 17 -5
91 -9 165 -9 155 2 190 13 230 71 50 74 27 179 -50 227 -32 20 -49 22 -184 23
-132 0 -154 -2 -190 -20z"/>
<path d="M4144 2044 c-47 -25 -71 -53 -84 -99 -22 -79 -9 -106 98 -217 119
-123 141 -139 195 -142 74 -6 142 38 166 105 12 35 6 104 -12 129 -24 34 -185
196 -214 215 -35 23 -113 28 -149 9z"/>
</g>
</svg>
